<svg width="320" height="219" viewBox="0 0 320 219" fill="none" xmlns="http://www.w3.org/2000/svg">
<path d="M312.281 14H311.989C308.129 14 305 17.1289 305 20.9886V196.896C305 200.756 308.129 203.885 311.989 203.885H312.281C316.141 203.885 319.27 200.756 319.27 196.896V20.9886C319.27 17.1289 316.141 14 312.281 14Z" fill="white"/>
<mask id="mask0_207_141" style="mask-type:luminance" maskUnits="userSpaceOnUse" x="0" y="0" width="189" height="219">
<path d="M188.789 0H0V218.684H188.789V0Z" fill="white"/>
</mask>
<g mask="url(#mask0_207_141)">
<path d="M63.2968 18.1575L6.10352e-05 54.6996V83.0469L63.2968 46.5025L126.591 83.0469V54.6996L63.2968 18.1575Z" fill="white"/>
<path d="M125.495 200.765L62.1976 164.223V135.88L125.495 172.422L188.789 135.88V164.223L125.495 200.765Z" fill="white"/>
<path d="M6.10352e-05 90.6595L63.2968 54.115L87.8414 68.2875L24.547 104.832V177.921L6.10352e-05 163.748V90.6595Z" fill="white"/>
<path d="M157.733 36.5421L94.4366 0L69.8896 14.1725L133.184 50.7146V123.803L157.733 109.631V36.5421Z" fill="white"/>
<path d="M31.2731 182.137L31.2754 109.051L55.8223 94.8784V167.967L119.117 204.509L94.5698 218.684L31.2731 182.137Z" fill="white"/>
<path d="M188.789 128.266V55.1769L164.242 41.0044V114.091L100.948 150.638L125.495 164.812L188.789 128.266Z" fill="white"/>
</g>
</svg>
